<svg version="1.1" viewBox="0.0 0.0 100.0 100.0" fill="none" stroke="none" stroke-linecap="square" stroke-miterlimit="10" xmlns:xlink="http://www.w3.org/1999/xlink" xmlns="http://www.w3.org/2000/svg"><clipPath id="p.0"><path d="m0 0l100.0 0l0 100.0l-100.0 0l0 -100.0z" clip-rule="nonzero"/></clipPath><g clip-path="url(#p.0)"><path fill="#000000" fill-opacity="0.0" d="m0 0l100.0 0l0 100.0l-100.0 0z" fill-rule="evenodd"/><path fill="#000000" fill-opacity="0.0" d="m6.141732 7.2073493l54.70463 0l0 0c8.487995 0 16.628345 3.3718429 22.630268 9.373762c6.0019226 6.0019207 9.373764 14.142271 9.373764 22.630268l0 54.54715l-86.708664 0z" fill-rule="evenodd"/><path stroke="#b7b7b7" stroke-width="4.0" stroke-linejoin="round" stroke-linecap="butt" d="m6.141732 7.2073493l54.70463 0l0 0c8.487995 0 16.628345 3.3718429 22.630268 9.373762c6.0019226 6.0019207 9.373764 14.142271 9.373764 22.630268l0 54.54715l-86.708664 0z" fill-rule="evenodd"/><path fill="#000000" fill-opacity="0.0" d="m-7.015748 2.784777l94.267715 0l0 89.95276l-94.267715 0z" fill-rule="evenodd"/><path fill="#66aaee" d="m39.321236 58.327404l-8.906252 0l0 24.093746l-16.453125 0l0 -68.25l26.859375 0q12.140625 0 18.984375 5.390625q6.84375 5.390625 6.84375 15.234377q0 7.125 -2.890625 11.8125q-2.875 4.6875 -9.015625 7.59375l14.25 27.515621l0 0.703125l-17.625 0l-12.046875 -24.093746zm-8.906252 -12.703125l10.406252 0q4.6875 0 7.046875 -2.453125q2.375 -2.46875 2.375 -6.875q0 -4.406252 -2.390625 -6.906252q-2.390625 -2.515625 -7.03125 -2.515625l-10.406252 0l0 18.750002z" fill-rule="nonzero"/><path fill="#000000" fill-opacity="0.0" d="m27.71916 42.603676l66.29921 0l0 56.125984l-66.29921 0z" fill-rule="evenodd"/><path fill="#cc99aa" d="m48.625412 54.965416q-3.40625 1.296875 -5.28125 4.015625q-1.875 2.703125 -1.875 6.640625q0 1.765625 0.328125 2.46875q0.34375 0.703125 0.34375 0.796875q-2.59375 0 -3.875 -1.078125q-1.265625 -1.09375 -1.265625 -3.578125q0 -3.078125 2.515625 -5.984375q2.53125 -2.90625 6.46875 -4.703125q3.9375 -1.796875 7.875 -1.796875q0.671875 0 1.921875 0.09375l0.421875 29.515625l10.078125 -29.375l6.109375 0l0.421875 29.375l10.078125 -29.375l3.359375 0l-13.34375 35.765625l-6.90625 0l-0.578125 -24.4375l-9.125 24.4375l-6.90625 0l-0.765625 -32.78125z" fill-rule="nonzero"/></g></svg>