<?xml version="1.0" standalone="no"?>
<!DOCTYPE svg PUBLIC "-//W3C//DTD SVG 20010904//EN"
 "http://www.w3.org/TR/2001/REC-SVG-20010904/DTD/svg10.dtd">
<svg version="1.0" xmlns="http://www.w3.org/2000/svg"
 width="700.000000pt" height="700.000000pt" viewBox="0 0 700.000000 700.000000"
 preserveAspectRatio="xMidYMid meet">
<metadata>
Created by potrace 1.11, written by Peter Selinger 2001-2013
</metadata>
<g transform="translate(0.000000,700.000000) scale(0.100000,-0.100000)"
fill="#000000" stroke="none">
<path d="M430 3468 c0 -1666 3 -3028 8 -3029 35 -4 6046 -3 6053 2 11 6 8
4030 -3 4065 -3 12 -9 45 -13 75 -3 30 -8 61 -10 69 -2 8 -7 30 -10 49 -25
147 -98 358 -185 536 -82 167 -108 209 -222 364 -278 378 -695 667 -1158 805
-47 14 -100 28 -119 31 -19 3 -38 8 -42 10 -4 3 -26 7 -49 10 -24 3 -46 7 -49
9 -3 3 -35 7 -71 11 -36 4 -78 9 -95 12 -16 2 -931 5 -2032 6 l-2003 3 0
-3028z"/>
</g>
</svg>
