<?xml version="1.0" standalone="no"?>
<!DOCTYPE svg PUBLIC "-//W3C//DTD SVG 20010904//EN"
 "http://www.w3.org/TR/2001/REC-SVG-20010904/DTD/svg10.dtd">
<svg version="1.0" xmlns="http://www.w3.org/2000/svg"
 width="700.000000pt" height="700.000000pt" viewBox="0 0 700.000000 700.000000"
 preserveAspectRatio="xMidYMid meet">
<metadata>
Created by potrace 1.11, written by Peter Selinger 2001-2013
</metadata>
<g transform="translate(0.000000,700.000000) scale(0.100000,-0.100000)"
fill="#000000" stroke="none">
<path d="M3175 6990 c-496 -51 -951 -192 -1364 -422 -58 -32 -106 -58 -107
-58 -9 0 -270 -181 -345 -239 -291 -225 -582 -537 -764 -819 -21 -31 -48 -73
-60 -92 -140 -214 -316 -598 -380 -825 -56 -202 -46 -162 -79 -315 -13 -63
-29 -151 -36 -195 -6 -44 -13 -93 -15 -110 -20 -139 -27 -574 -12 -725 9 -82
25 -208 33 -255 3 -16 7 -39 9 -50 13 -97 78 -352 121 -481 96 -288 204 -513
387 -809 36 -58 172 -246 213 -295 156 -183 266 -298 390 -410 89 -80 109 -97
209 -172 50 -38 101 -77 114 -87 60 -46 311 -196 428 -255 381 -192 731 -298
1168 -356 115 -15 195 -18 450 -15 171 1 321 5 335 8 14 4 64 11 113 17 225
28 608 126 772 199 11 5 52 21 90 36 100 40 333 156 434 217 112 68 338 220
351 237 3 4 25 22 50 41 257 195 566 537 762 843 84 131 278 496 278 523 0 3
8 24 19 47 20 46 77 203 110 307 43 138 104 419 117 541 3 35 8 67 10 70 25
43 24 712 -1 824 -3 11 -7 38 -9 60 -2 22 -12 83 -21 135 -108 624 -391 1212
-816 1701 -133 154 -409 409 -539 499 -19 14 -39 28 -45 32 -69 53 -277 188
-289 188 -2 0 -41 21 -87 48 -46 26 -127 67 -179 91 -52 24 -103 47 -112 52
-156 77 -567 198 -794 233 -22 4 -46 8 -54 11 -8 2 -44 6 -80 10 -36 3 -94 10
-130 14 -79 10 -548 10 -645 1z"/>
</g>
</svg>
